<?xml version="1.0" standalone="no"?>
<!DOCTYPE svg PUBLIC "-//W3C//DTD SVG 20010904//EN"
 "http://www.w3.org/TR/2001/REC-SVG-20010904/DTD/svg10.dtd">
<svg version="1.0" xmlns="http://www.w3.org/2000/svg"
 width="1024.000000pt" height="1024.000000pt" viewBox="0 0 1024.000000 1024.000000"
 preserveAspectRatio="xMidYMid meet">

<g transform="translate(0.000000,1024.000000) scale(0.100000,-0.100000)"
fill="#000000" stroke="none">
<path d="M2753 8080 c-18 -10 -41 -37 -53 -59 -19 -38 -20 -58 -20 -395 0
-195 -3 -361 -6 -370 -5 -13 -24 -16 -108 -16 -309 -1 -539 -132 -660 -376
-49 -99 -66 -182 -66 -330 0 -80 -4 -124 -12 -132 -9 -9 -100 -12 -348 -12
-405 -1 -421 -5 -472 -104 -37 -73 -14 -158 56 -210 26 -20 42 -21 389 -24
241 -2 365 -6 374 -14 18 -15 19 -598 1 -616 -9 -9 -103 -12 -360 -12 -389 0
-395 -1 -444 -66 -25 -32 -29 -46 -29 -103 0 -53 5 -72 23 -99 48 -67 48 -67
447 -70 266 -2 361 -6 367 -15 13 -21 10 -601 -4 -615 -9 -9 -105 -12 -369
-12 -197 0 -364 -3 -373 -6 -9 -3 -13 -10 -10 -15 3 -5 -2 -6 -10 -3 -10 4
-24 -9 -43 -37 -23 -35 -28 -53 -28 -105 0 -70 17 -102 75 -141 33 -23 36 -23
389 -23 264 0 360 -3 369 -12 8 -8 12 -58 12 -161 0 -133 3 -156 26 -225 34
-104 76 -173 143 -241 73 -74 111 -102 196 -144 103 -51 181 -67 326 -67 84 0
129 -4 137 -12 9 -9 12 -104 12 -366 0 -394 1 -399 68 -450 50 -38 143 -43
191 -10 19 12 44 36 55 51 20 27 21 43 26 405 l5 377 315 0 315 0 5 -365 c5
-394 6 -395 62 -447 72 -67 199 -55 254 26 l24 36 0 365 c0 271 3 369 12 378
18 18 611 17 626 -1 8 -9 12 -133 14 -374 l3 -361 31 -39 c58 -73 139 -92 220
-53 81 40 78 27 84 455 l5 380 155 6 c115 5 171 12 218 27 215 69 413 282 457
490 22 100 22 2814 1 2924 -47 248 -212 430 -461 513 -65 22 -106 28 -225 33
l-145 7 -5 377 c-5 362 -6 378 -26 405 -37 50 -81 73 -142 73 -72 0 -125 -30
-152 -85 -19 -39 -20 -62 -20 -408 l0 -367 -319 0 -319 0 -6 23 c-3 12 -6 179
-6 370 0 386 1 383 -67 434 -32 24 -45 28 -104 28 -73 0 -103 -14 -143 -69
-20 -26 -21 -43 -26 -404 l-5 -377 -315 0 -315 0 -5 370 c-5 364 -5 371 -28
407 -34 55 -78 78 -148 78 -41 0 -69 -6 -91 -20z m2080 3 c-7 -2 -19 -2 -25 0
-7 3 -2 5 12 5 14 0 19 -2 13 -5z m-140 -68 c-3 -9 -8 -14 -10 -11 -3 3 -2 9
2 15 9 16 15 13 8 -4z m-1982 -18 c-10 -9 -11 -8 -5 6 3 10 9 15 12 12 3 -3 0
-11 -7 -18z m2266 -69 c-3 -7 -5 -2 -5 12 0 14 2 19 5 13 2 -7 2 -19 0 -25z
m-1970 -65 c-3 -10 -5 -4 -5 12 0 17 2 24 5 18 2 -7 2 -21 0 -30z m1970 -125
c-3 -8 -6 -5 -6 6 -1 11 2 17 5 13 3 -3 4 -12 1 -19z m-990 -60 c-3 -8 -6 -5
-6 6 -1 11 2 17 5 13 3 -3 4 -12 1 -19z m-1582 -468 c-3 -5 -16 -10 -28 -9
-20 1 -20 2 3 9 14 4 26 8 28 9 2 1 0 -3 -3 -9z m2880 0 c3 -6 -1 -7 -9 -4
-18 7 -21 14 -7 14 6 0 13 -4 16 -10z m-2727 -287 c-10 -2 -28 -2 -40 0 -13 2
-5 4 17 4 22 1 32 -1 23 -4z m379 1 c-3 -3 -12 -4 -19 -1 -8 3 -5 6 6 6 11 1
17 -2 13 -5z m116 -1 c-7 -2 -19 -2 -25 0 -7 3 -2 5 12 5 14 0 19 -2 13 -5z
m95 0 c-10 -2 -26 -2 -35 0 -10 3 -2 5 17 5 19 0 27 -2 18 -5z m115 0 c-7 -2
-21 -2 -30 0 -10 3 -4 5 12 5 17 0 24 -2 18 -5z m460 0 c-7 -2 -21 -2 -30 0
-10 3 -4 5 12 5 17 0 24 -2 18 -5z m74 1 c-3 -3 -12 -4 -19 -1 -8 3 -5 6 6 6
11 1 17 -2 13 -5z m200 0 c-3 -3 -12 -4 -19 -1 -8 3 -5 6 6 6 11 1 17 -2 13
-5z m590 0 c-3 -3 -12 -4 -19 -1 -8 3 -5 6 6 6 11 1 17 -2 13 -5z m70 0 c-3
-3 -12 -4 -19 -1 -8 3 -5 6 6 6 11 1 17 -2 13 -5z m70 0 c-3 -3 -12 -4 -19 -1
-8 3 -5 6 6 6 11 1 17 -2 13 -5z m186 -1 c-7 -2 -19 -2 -25 0 -7 3 -2 5 12 5
14 0 19 -2 13 -5z m170 0 c-7 -2 -19 -2 -25 0 -7 3 -2 5 12 5 14 0 19 -2 13
-5z m44 1 c-3 -3 -12 -4 -19 -1 -8 3 -5 6 6 6 11 1 17 -2 13 -5z m168 -42 c68
-31 138 -102 172 -176 l28 -61 0 -1410 0 -1410 -28 -57 c-33 -67 -90 -121
-166 -157 l-56 -26 -1415 0 -1415 0 -55 26 c-66 31 -112 76 -148 144 l-27 50
0 1435 0 1435 27 50 c26 51 94 121 139 146 72 38 58 38 1499 36 l1395 -2 50
-23z m482 -84 c-3 -8 -6 -5 -6 6 -1 11 2 17 5 13 3 -3 4 -12 1 -19z m-3920
-210 c-3 -7 -5 -2 -5 12 0 14 2 19 5 13 2 -7 2 -19 0 -25z m0 -125 c-3 -10 -5
-4 -5 12 0 17 2 24 5 18 2 -7 2 -21 0 -30z m-702 -393 c3 -5 1 -10 -4 -10 -6
0 -11 5 -11 10 0 6 2 10 4 10 3 0 8 -4 11 -10z m162 -6 c-3 -3 -12 -4 -19 -1
-8 3 -5 6 6 6 11 1 17 -2 13 -5z m270 0 c-3 -3 -12 -4 -19 -1 -8 3 -5 6 6 6
11 1 17 -2 13 -5z m270 -106 c-3 -8 -6 -5 -6 6 -1 11 2 17 5 13 3 -3 4 -12 1
-19z m0 -140 c-3 -8 -6 -5 -6 6 -1 11 2 17 5 13 3 -3 4 -12 1 -19z m0 -105
c-3 -10 -5 -4 -5 12 0 17 2 24 5 18 2 -7 2 -21 0 -30z m0 -90 c-2 -16 -4 -5
-4 22 0 28 2 40 4 28 2 -13 2 -35 0 -50z m0 -155 c-2 -13 -4 -5 -4 17 -1 22 1
32 4 23 2 -10 2 -28 0 -40z m-819 -323 c-3 -3 -9 2 -12 12 -6 14 -5 15 5 6 7
-7 10 -15 7 -18z m819 -167 c-2 -13 -4 -3 -4 22 0 25 2 35 4 23 2 -13 2 -33 0
-45z m0 -100 c-3 -8 -6 -5 -6 6 -1 11 2 17 5 13 3 -3 4 -12 1 -19z m0 -380
c-2 -13 -4 -5 -4 17 -1 22 1 32 4 23 2 -10 2 -28 0 -40z m3660 -170 c-3 -8 -6
-5 -6 6 -1 11 2 17 5 13 3 -3 4 -12 1 -19z m-4364 -215 c-7 -2 -19 -2 -25 0
-7 3 -2 5 12 5 14 0 19 -2 13 -5z m120 0 c-13 -2 -35 -2 -50 0 -16 2 -5 4 22
4 28 0 40 -2 28 -4z m170 0 c-7 -2 -21 -2 -30 0 -10 3 -4 5 12 5 17 0 24 -2
18 -5z m155 0 c-10 -2 -26 -2 -35 0 -10 3 -2 5 17 5 19 0 27 -2 18 -5z m190 0
c-16 -2 -40 -2 -55 0 -16 2 -3 4 27 4 30 0 43 -2 28 -4z m69 -95 c-2 -13 -4
-5 -4 17 -1 22 1 32 4 23 2 -10 2 -28 0 -40z m1370 -454 c-3 -3 -12 -4 -19 -1
-8 3 -5 6 6 6 11 1 17 -2 13 -5z m370 0 c-3 -3 -12 -4 -19 -1 -8 3 -5 6 6 6
11 1 17 -2 13 -5z m686 -1 c-7 -2 -21 -2 -30 0 -10 3 -4 5 12 5 17 0 24 -2 18
-5z m324 1 c-3 -3 -12 -4 -19 -1 -8 3 -5 6 6 6 11 1 17 -2 13 -5z m316 -1 c-7
-2 -19 -2 -25 0 -7 3 -2 5 12 5 14 0 19 -2 13 -5z m-2618 -271 c-3 -3 -11 0
-18 7 -9 10 -8 11 6 5 10 -3 15 -9 12 -12z m1682 -164 c-3 -8 -6 -5 -6 6 -1
11 2 17 5 13 3 -3 4 -12 1 -19z m0 -195 c-3 -10 -5 -2 -5 17 0 19 2 27 5 18 2
-10 2 -26 0 -35z m0 -55 c-3 -7 -5 -2 -5 12 0 14 2 19 5 13 2 -7 2 -19 0 -25z
m-980 -60 c-3 -8 -6 -5 -6 6 -1 11 2 17 5 13 3 -3 4 -12 1 -19z m0 -70 c-3 -8
-6 -5 -6 6 -1 11 2 17 5 13 3 -3 4 -12 1 -19z m0 -140 c-3 -8 -6 -5 -6 6 -1
11 2 17 5 13 3 -3 4 -12 1 -19z m0 -40 c-3 -8 -6 -5 -6 6 -1 11 2 17 5 13 3
-3 4 -12 1 -19z m687 -54 c3 -8 2 -12 -4 -9 -6 3 -10 10 -10 16 0 14 7 11 14
-7z m71 -92 c-3 -3 -11 0 -18 7 -9 10 -8 11 6 5 10 -3 15 -9 12 -12z m-918
-18 c-3 -3 -12 -4 -19 -1 -8 3 -5 6 6 6 11 1 17 -2 13 -5z"/>
<path d="M3231 6267 c-13 -6 -28 -19 -32 -27 -16 -31 -407 -1215 -596 -1803
-21 -65 -20 -117 3 -134 13 -9 57 -13 151 -13 128 0 135 1 158 24 16 16 43 84
85 215 43 134 67 194 80 201 11 6 154 10 369 10 l351 0 14 -22 c8 -13 35 -93
61 -178 79 -264 65 -250 251 -250 121 0 136 2 154 20 11 11 20 30 20 41 0 22
-389 1190 -548 1648 -73 208 -93 256 -113 267 -33 18 -373 19 -408 1z m426
-49 c-3 -8 -6 -5 -6 6 -1 11 2 17 5 13 3 -3 4 -12 1 -19z m-151 -503 c110
-336 194 -605 194 -619 0 -14 -29 -16 -254 -16 -140 0 -257 4 -260 9 -3 5 17
80 45 167 101 317 181 559 191 577 21 41 41 13 84 -118z m-875 -1403 c-7 -2
-18 1 -23 6 -8 8 -4 9 13 5 13 -4 18 -8 10 -11z"/>
<path d="M4590 6262 l-25 -20 -1 -889 c0 -488 2 -916 4 -951 7 -100 16 -106
159 -110 108 -3 121 -2 145 18 16 12 29 34 32 53 8 54 15 1778 7 1835 -4 29
-13 58 -20 65 -8 8 -57 13 -144 15 -121 3 -135 2 -157 -16z m297 -1904 c-3 -8
-6 -5 -6 6 -1 11 2 17 5 13 3 -3 4 -12 1 -19z"/>
<path d="M6224 6710 c-42 -13 -100 -79 -114 -129 -7 -27 -10 -462 -8 -1419 l3
-1379 30 -43 c38 -54 91 -79 168 -80 70 0 97 11 235 93 59 35 207 123 329 196
178 105 221 135 217 149 -5 13 -4 14 4 3 8 -11 35 2 133 61 68 41 157 94 197
117 40 23 70 45 68 49 -3 4 3 8 12 8 9 0 96 46 192 103 96 57 229 136 295 174
341 200 614 363 642 385 18 13 30 28 27 33 -3 5 0 8 8 7 23 -5 68 99 68 156 0
117 -48 182 -200 270 -47 27 -152 89 -235 136 -131 76 -630 366 -1290 750
-110 64 -266 155 -347 203 -219 129 -279 157 -346 162 -31 2 -71 0 -88 -5z
m123 -16 c-3 -3 -12 -4 -19 -1 -8 3 -5 6 6 6 11 1 17 -2 13 -5z m2334 -1617
c-10 -9 -11 -8 -5 6 3 10 9 15 12 12 3 -3 0 -11 -7 -18z"/>
</g>
</svg>
